<?xml version="1.0" encoding="iso-8859-1"?>
<!-- Generator: Adobe Illustrator 15.0.2, SVG Export Plug-In . SVG Version: 6.00 Build 0)  -->
<!DOCTYPE svg PUBLIC "-//W3C//DTD SVG 1.1//EN" "http://www.w3.org/Graphics/SVG/1.1/DTD/svg11.dtd">
<svg version="1.1" xmlns="http://www.w3.org/2000/svg" xmlns:xlink="http://www.w3.org/1999/xlink" x="0px" y="0px" width="48px"
	 height="40px" viewBox="0 0 48 40" style="enable-background:new 0 0 48 40;" xml:space="preserve">
<g id="all_categories">
	<g>
		<g>
			<path style="fill:#FFFFFF;" d="M25,6v22H10V6H25 M28,3H7v28h21V3L28,3z"/>
			<path style="fill:#FFFFFF;" d="M19,11.734c0,1.731-1.401,3.133-3.132,3.133c-1.733,0-3.134-1.402-3.134-3.133
				c0-1.732,1.401-3.134,3.134-3.134C17.599,8.6,19,10.001,19,11.734z"/>
			<polygon style="fill:#FFFFFF;" points="19,18.375 11.601,26 23,26 23,21.75 			"/>
		</g>
	</g>
	<polygon style="fill:#FFFFFF;" points="30,9 30,12 38,12 38,34 23,34 23,33 20,33 20,37 41,37 41,9 	"/>
	<path style="fill:#FFFFFF;" d="M35.608,16.65v-0.466c0.003-0.089-0.049-0.172-0.131-0.223c-0.083-0.051-0.19-0.062-0.287-0.032
		l-5.146,1.517v3.471l3.957-1.147v5.73c-0.171-0.035-0.347-0.061-0.53-0.061c-1.183,0-2.144,0.797-2.144,1.781
		c0,0.982,0.961,1.779,2.144,1.779c1.179,0,2.141-0.797,2.141-1.779V16.663C35.612,16.658,35.608,16.655,35.608,16.65z"/>
</g>
<g id="Ebene_1">
</g>
</svg>
