<?xml version="1.0" encoding="iso-8859-1"?>
<!-- Generator: Adobe Illustrator 15.0.2, SVG Export Plug-In . SVG Version: 6.00 Build 0)  -->
<!DOCTYPE svg PUBLIC "-//W3C//DTD SVG 1.1//EN" "http://www.w3.org/Graphics/SVG/1.1/DTD/svg11.dtd">
<svg version="1.1" xmlns="http://www.w3.org/2000/svg" xmlns:xlink="http://www.w3.org/1999/xlink" x="0px" y="0px" width="48px"
	 height="40px" viewBox="0 0 48 40" style="enable-background:new 0 0 48 40;" xml:space="preserve">
<g id="all_my_devices">
	<path style="fill:#FFFFFF;" d="M16,9h-6c-1.104,0-2,0.896-2,2v17c0,1.104,0.896,2,2,2h6v-4h-6V11h6"/>
	<path style="fill:#FFFFFF;" d="M36,11h2v15h-2v4h2c1.104,0,2-0.896,2-2V11c0-1.104-0.896-2-2-2h-2"/>
	<g>
		<path style="fill:#FFFFFF;" d="M34,7c0-1.104-0.896-2-2-2H20c-1.104,0-2,0.896-2,2v24c0,1.104,0.896,2,2,2h12c1.104,0,2-0.896,2-2
			V7z M27.667,32h-4c-0.552,0-1-0.447-1-1s0.448-1,1-1h4c0.553,0,1,0.447,1,1S28.22,32,27.667,32z M32,29H20V9h12V29z M28,8h-4V7h4
			V8z"/>
		<path style="fill:#FFFFFF;" d="M30,27h-8c0,0,0-7,2-7s2,0,4,0S30,27,30,27z"/>
		<circle style="fill:#FFFFFF;" cx="26" cy="15" r="3"/>
	</g>
</g>
<g id="Ebene_1">
</g>
</svg>
