<svg width="662" height="660" xmlns="http://www.w3.org/2000/svg" xmlns:xlink="http://www.w3.org/1999/xlink">
 <defs>
  <linearGradient id="imagebot_23">
   <stop stop-color="#ffffff" id="imagebot_49" offset="0"/>
   <stop stop-color="#ffffff" stop-opacity="0" id="imagebot_48" offset="1"/>
  </linearGradient>
  <linearGradient id="imagebot_24">
   <stop stop-color="#000000" id="imagebot_47" offset="0"/>
   <stop stop-color="#000000" stop-opacity="0" id="imagebot_46" offset="1"/>
  </linearGradient>
  <linearGradient id="imagebot_28">
   <stop stop-color="#ffffff" id="imagebot_40" offset="0"/>
   <stop stop-color="#ffffff" stop-opacity="0" id="imagebot_39" offset="1"/>
  </linearGradient>
  <linearGradient id="imagebot_27">
   <stop stop-color="#000000" stop-opacity="0.50588" id="imagebot_38" offset="0"/>
   <stop stop-color="#000000" stop-opacity="0" id="imagebot_37" offset="1"/>
  </linearGradient>
  <linearGradient id="imagebot_29">
   <stop stop-color="#ffffff" stop-opacity="0.30928" id="imagebot_36" offset="0"/>
   <stop stop-color="#c3ffff" stop-opacity="0" id="imagebot_35" offset="1"/>
  </linearGradient>
  <radialGradient gradientTransform="matrix(1.49768 0 0 1.49768 -115.503 -104.366)" gradientUnits="userSpaceOnUse" xlink:href="#imagebot_29" id="imagebot_18" fy="159.53757" fx="163.41444" r="120.18595" cy="159.53757" cx="163.41444"/>
  <radialGradient gradientTransform="matrix(1.12326 0 0 -1.12326 294.554 357.757)" gradientUnits="userSpaceOnUse" xlink:href="#imagebot_29" id="imagebot_20" fy="-138.31308" fx="200.03055" r="120.18595" cy="-138.31308" cx="200.03055"/>
  <linearGradient gradientUnits="userSpaceOnUse" xlink:href="#imagebot_28" id="imagebot_12" y2="273.03085" x2="93.86153" y1="159.43594" x1="-20.31893"/>
  <linearGradient gradientUnits="userSpaceOnUse" xlink:href="#imagebot_27" id="imagebot_10" y2="273.03085" x2="93.86153" y1="334.96542" x1="156.11537"/>
  <linearGradient gradientUnits="userSpaceOnUse" xlink:href="#imagebot_24" id="imagebot_8" y2="330.77985" x2="331.05746" y1="260.12823" x1="263.7475"/>
  <linearGradient gradientUnits="userSpaceOnUse" xlink:href="#imagebot_23" id="imagebot_6" y2="330.77985" x2="331.05746" y1="394.54382" x1="391.80557"/>
 </defs>
 <g display="inline" id="imagebot_22">
  <title>imagebot_22</title>
 </g>
 <g display="inline" id="imagebot_4">
  <path display="inline" fill="#000000" fill-rule="nonzero" stroke-width="2" stroke-linecap="round" stroke-miterlimit="4" id="imagebot_21" d="M 331.959 20.8771 C 161.184 20.8771 22.5844 159.477 22.5844 330.252 C 22.5844 501.027 161.184 639.627 331.959 639.627 C 502.734 639.627 641.334 501.027 641.334 330.252 C 641.334 159.477 502.734 20.8771 331.959 20.8771 Z M 331.959 258.252 C 371.703 258.252 403.959 290.508 403.959 330.252 C 403.959 369.996 371.703 402.252 331.959 402.252 C 292.215 402.252 259.959 369.996 259.959 330.252 C 259.959 290.508 292.215 258.252 331.959 258.252 Z"/>
  <path display="inline" opacity="0.5" fill="url(#imagebot_20)" fill-rule="nonzero" stroke-width="2" stroke-linecap="round" stroke-miterlimit="4" stroke-opacity="0.12549" id="imagebot_19" d="M 519.241 382.69 C 514.066 382.69 508.952 382.966 503.928 383.533 C 486.4 440.101 441.701 484.764 385.116 502.252 C 384.538 507.317 384.241 512.471 384.241 517.69 C 384.241 592.21 444.721 652.69 519.241 652.69 C 593.761 652.69 654.241 592.21 654.241 517.69 C 654.241 443.17 593.761 382.69 519.241 382.69 Z"/>
  <path display="inline" fill="url(#imagebot_18)" fill-rule="nonzero" stroke-width="2" stroke-linecap="round" stroke-miterlimit="4" stroke-opacity="0.12549" id="imagebot_17" d="M 274.053 26.3146 C 149.794 49.876 51.7712 147.818 28.0844 272.033 C 54.4817 317.729 100.374 350.774 154.366 359.752 C 152.781 350.152 151.959 340.299 151.959 330.252 C 151.959 230.892 232.599 150.252 331.959 150.252 C 342.072 150.252 351.987 151.084 361.647 152.69 C 352.724 98.6778 319.721 52.7568 274.053 26.3146 Z M 331.959 253.096 C 289.377 253.096 254.803 287.669 254.803 330.252 C 254.803 335.984 255.459 341.563 256.647 346.94 C 259.683 345.599 262.67 344.159 265.616 342.658 C 264.867 338.635 264.459 334.492 264.459 330.252 C 264.459 292.992 294.699 262.752 331.959 262.752 C 336.222 262.752 340.384 263.183 344.428 263.94 C 345.931 260.998 347.366 258.003 348.709 254.971 C 343.312 253.773 337.715 253.096 331.959 253.096 Z"/>
  <path display="inline" fill="#000000" fill-rule="nonzero" stroke-width="2" stroke-linecap="round" stroke-miterlimit="4" id="imagebot_16" d="M 331.959 20.8771 C 161.184 20.8771 22.5844 159.477 22.5844 330.252 C 22.5844 501.027 161.184 639.627 331.959 639.627 C 502.734 639.627 641.334 501.027 641.334 330.252 C 641.334 159.477 502.734 20.8771 331.959 20.8771 Z M 331.959 31.0021 C 497.145 31.0021 631.209 165.066 631.209 330.252 C 631.209 495.438 497.145 629.502 331.959 629.502 C 166.773 629.502 32.7094 495.438 32.7094 330.252 C 32.7094 165.066 166.773 31.0021 331.959 31.0021 Z"/>
  <path display="inline" fill="none" fill-rule="evenodd" stroke="#f0f0ff" stroke-width="1px" stroke-opacity="0.03922" id="imagebot_15" transform="translate(5.70937 4.00205) matrix(1.20338 0 0 1.20943 335.558 126.667)" d="M 88.8442 264.107 C 35.5689 317.776 -53.7729 317.902 -107.394 264.672 C -161.375 211.087 -161.501 121.225 -107.962 67.2914 C -54.0644 12.9973 36.32 12.8703 90.5667 66.7213 C 145.176 120.932 145.303 211.841 91.1393 266.402 C 36.6141 321.328 -54.8221 321.456 -109.699 266.978 C -164.942 212.136 -165.071 120.171 -110.277 64.9762 C -55.1187 9.41432 37.3784 9.28517 92.8919 64.3961 C 148.774 119.873 148.904 212.904 93.4745 268.738 C 37.6775 324.942 -55.8896 325.072 -112.045 269.323 C -168.572 213.204 -168.703 119.099 -112.633 62.6206 C -56.1913 5.76892 38.4551 5.63754 95.2577 62.0305 C 152.435 118.796 152.567 213.986 95.8503 271.114 C 38.7594 328.619 -56.9757 328.751 -114.431 271.709 C -172.265 214.291 -172.398 118.008 -115.029 60.2242 C -57.2826 2.06034 39.5506 1.92671 97.6644 59.6239 C 156.16 117.7 156.294 215.086 98.2673 273.531 C 39.8601 332.359 -58.0805 332.494 -116.858 274.136 C -176.021 215.396 -176.157 116.899 -117.466 57.7864 C -58.3927 -1.71213 40.6648 -1.84805 100.113 57.1759 C 159.948 116.585 160.085 216.205 100.726 275.989 C 40.9796 336.164 -59.2043 336.301 -119.328 276.605 C -179.842 216.521 -179.98 115.77 -119.946 55.3069 C -59.5217 -5.54923 41.7982 -5.68746 102.603 54.6859 C 163.802 115.451 163.941 217.343 103.226 278.49 C 42.1183 340.034 -60.3473 340.173 -121.839 279.116 C -183.728 217.664 -183.868 114.622 -122.468 52.7851 C -60.6701 -9.4517 42.9509 -9.59226 105.135 52.1536 C 167.721 114.298 167.862 218.5 105.769 281.033 C 43.2763 343.969 -61.5097 344.111 -124.393 281.67 C -187.68 218.827 -187.822 113.455 -125.032 50.2206 C -61.8379 -13.4203 44.123 -13.5632 107.71 49.5784 C 171.706 113.125 171.849 219.677 108.355 283.619 C 44.4539 347.971 -62.6917 348.115 -126.989 284.267 C -191.699 220.01 -191.843 112.268 -127.64 47.6128 C -63.0253 -17.4557 45.3149 -17.601 110.329 46.9599 C 175.758 111.933 175.904 220.874 110.985 286.249 C 45.6513 352.04 -63.8935 352.187 -129.63 286.907 C -195.785 221.212 -195.932 111.061 -130.291 44.9613 C -64.2327 -21.5587 46.5268 -21.7064 112.991 44.2976 C 179.878 110.721 180.026 222.091 113.658 288.922 C 46.8687 356.177 -65.1154 356.326 -132.315 289.591 C -199.939 222.434 -200.089 109.834 -132.986 42.2657 C -65.4602 -25.73 47.7588 -25.8802 115.698 41.5909 C 184.067 109.488 184.217 223.328 116.376 291.64 C 48.1063 360.383 -66.3576 360.534 -135.044 292.32 C -204.162 223.677 -204.314 108.587 -135.727 39.5253 C -66.708 -29.9705 49.0112 -30.1231 118.45 38.8395 C 188.325 108.235 188.478 224.586 119.138 294.403 C 49.3644 364.658 -67.6203 364.812 -137.818 295.095 C -208.455 224.94 -208.609 107.319 -138.512 36.7398 C -67.9764 -34.2808 50.2842 -34.4359 121.247 36.0427 C 192.652 106.961 192.808 225.864 121.947 297.211 C 50.6432 369.004 -68.9037 369.16 -140.638 297.914 C -212.818 226.224 -212.975 106.03 -141.343 33.9086 C -69.2656 -38.6617 51.5781 -38.8193 124.089 33.2002 C 197.051 105.667 197.209 227.163 124.801 300.066 C 51.9429 373.42 -70.2081 373.579 -143.503 300.78 C -217.252 227.529 -217.412 104.721 -144.22 31.0313 C -70.5758 -43.114 52.893 -43.2742 126.978 30.3114 C 201.521 104.352 201.682 228.483 127.701 302.966 C 53.2637 377.908 -71.5337 378.07 -146.416 303.692 C -221.759 228.855 -221.921 103.39 -147.144 28.1073 C -71.9073 -47.6384 54.2293 -47.8012 129.914 27.3758 C 206.064 103.015 206.227 229.825 130.648 305.914 C 54.6058 382.469 -72.8806 382.633 -149.375 306.651 C -226.338 230.203 -226.503 102.038 -150.115 25.1362 C -73.2602 -52.2358 55.587 -52.4011 132.897 24.393 C 210.68 101.656 210.846 231.188 133.643 308.909 C 55.9696 387.103 -74.2492 387.27 -152.382 309.658 C -230.99 231.572 -231.158 100.663 -153.134 22.1174 C -74.6348 -56.9069 56.9665 -57.0749 135.928 21.3623 C 215.369 100.276 215.538 232.573 136.686 311.951 C 57.3551 391.812 -75.6397 391.981 -155.437 312.712 C -235.717 232.963 -235.887 99.2675 -156.201 19.0504 C -76.0314 -61.6525 58.368 -61.8231 139.007 18.2833 C 220.134 98.8743 220.305 233.98 139.777 315.043 C 58.7628 396.595 -77.0523 396.767 -158.54 315.816 C -240.519 234.376 -240.692 97.8493 -159.316 15.9347 C -77.4501 -66.4734 59.7917 -66.6467 142.135 15.1556 C 224.973 97.45 225.147 235.409 142.917 318.183 C 60.1926 401.454 -78.4872 401.628 -161.693 318.968 C -245.397 235.812 -245.572 96.4088 -162.481 12.7699 C -78.8912 -71.3703 61.2379 -71.5463 145.312 11.9785 C 229.89 96.0032 230.066 236.861 146.107 321.372 C 61.6451 406.389 -79.9447 406.566 -164.895 322.17 C -250.352 237.27 -250.53 94.9456 -165.695 9.55529 C -80.355 -76.3441 62.7068 -76.5229 148.539 8.75159 C 234.883 94.5338 235.062 238.336 149.346 324.612 C 63.1202 411.401 -81.425 411.582 -168.147 325.422 C -255.384 238.751 -255.565 93.4596 -168.96 6.2905 C -81.8416 -81.3956 64.1985 -81.5771 151.817 5.47432 C 239.954 93.0414 240.136 239.833 152.636 327.902 C 64.6184 416.492 -82.9283 416.675 -171.45 328.725 C -260.494 240.255 -260.678 91.9505 -172.275 2.97496 C -83.3513 -86.5256 65.7135 -86.7099 155.145 2.14617 C 245.103 91.5259 245.288 241.354 155.977 331.243 C 66.1397 421.662 -84.4549 421.847 -174.804 332.078 C -265.683 241.782 -265.87 90.418 -175.642 -0.39186 C -84.8844 -91.7348 67.2518 -91.922 158.525 -1.23337 C 250.333 89.9869 250.521 242.898 159.369 334.636 C 67.6846 426.911 -86.005 427.099 -178.209 335.484 C -270.953 243.333 -271.142 88.862 -179.06 -3.81046 C -86.4411 -97.0242 68.8138 -97.2142 161.956 -4.66484 C 255.642 88.4243 255.833 244.466 162.814 338.081 C 69.2531 432.24 -87.5789 432.432 -181.667 338.942 C -276.302 244.907 -276.495 87.2821 -182.531 -7.28139 C -88.0216 -102.394 70.3996 -102.587 165.44 -8.14876 C 261.033 86.8379 261.226 246.058 166.311 341.578 C 70.8456 437.651 -89.1768 437.846 -185.178 342.452 C -281.734 246.506 -281.929 85.6782 -186.055 -10.8052 C -89.6261 -107.846 72.0096 -108.042 168.978 -11.6857 C 266.504 85.226 266.702 247.67 169.865 345.125"/>
  <path display="inline" fill="#ff8a3c" fill-rule="nonzero" stroke-width="2" stroke-linecap="round" stroke-miterlimit="4" stroke-opacity="0.12549" id="imagebot_14" d="M 331.959 172.752 C 245.019 172.752 174.459 243.312 174.459 330.252 C 174.459 417.192 245.019 487.752 331.959 487.752 C 418.899 487.752 489.459 417.192 489.459 330.252 C 489.459 243.312 418.899 172.752 331.959 172.752 Z M 331.959 262.752 C 369.219 262.752 399.459 292.992 399.459 330.252 C 399.459 367.512 369.219 397.752 331.959 397.752 C 294.699 397.752 264.459 367.512 264.459 330.252 C 264.459 292.992 294.699 262.752 331.959 262.752 Z"/>
  <path display="inline" fill="none" fill-rule="evenodd" stroke="#000000" stroke-width="1px" stroke-opacity="0.49727" id="imagebot_13" transform="translate(5.70937 4.00205) matrix(1.20338 0 0 1.20943 333.558 126.667)" d="M 88.8442 264.107 C 35.5689 317.776 -53.7729 317.902 -107.394 264.672 C -161.375 211.087 -161.501 121.225 -107.962 67.2914 C -54.0644 12.9973 36.32 12.8703 90.5667 66.7213 C 145.176 120.932 145.303 211.841 91.1393 266.402 C 36.6141 321.328 -54.8221 321.456 -109.699 266.978 C -164.942 212.136 -165.071 120.171 -110.277 64.9762 C -55.1187 9.41432 37.3784 9.28517 92.8919 64.3961 C 148.774 119.873 148.904 212.904 93.4745 268.738 C 37.6775 324.942 -55.8896 325.072 -112.045 269.323 C -168.572 213.204 -168.703 119.099 -112.633 62.6206 C -56.1913 5.76892 38.4551 5.63754 95.2577 62.0305 C 152.435 118.796 152.567 213.986 95.8503 271.114 C 38.7594 328.619 -56.9757 328.751 -114.431 271.709 C -172.265 214.291 -172.398 118.008 -115.029 60.2242 C -57.2826 2.06034 39.5506 1.92671 97.6644 59.6239 C 156.16 117.7 156.294 215.086 98.2673 273.531 C 39.8601 332.359 -58.0805 332.494 -116.858 274.136 C -176.021 215.396 -176.157 116.899 -117.466 57.7864 C -58.3927 -1.71213 40.6648 -1.84805 100.113 57.1759 C 159.948 116.585 160.085 216.205 100.726 275.989 C 40.9796 336.164 -59.2043 336.301 -119.328 276.605 C -179.842 216.521 -179.98 115.77 -119.946 55.3069 C -59.5217 -5.54923 41.7982 -5.68746 102.603 54.6859 C 163.802 115.451 163.941 217.343 103.226 278.49 C 42.1183 340.034 -60.3473 340.173 -121.839 279.116 C -183.728 217.664 -183.868 114.622 -122.468 52.7851 C -60.6701 -9.4517 42.9509 -9.59226 105.135 52.1536 C 167.721 114.298 167.862 218.5 105.769 281.033 C 43.2763 343.969 -61.5097 344.111 -124.393 281.67 C -187.68 218.827 -187.822 113.455 -125.032 50.2206 C -61.8379 -13.4203 44.123 -13.5632 107.71 49.5784 C 171.706 113.125 171.849 219.677 108.355 283.619 C 44.4539 347.971 -62.6917 348.115 -126.989 284.267 C -191.699 220.01 -191.843 112.268 -127.64 47.6128 C -63.0253 -17.4557 45.3149 -17.601 110.329 46.9599 C 175.758 111.933 175.904 220.874 110.985 286.249 C 45.6513 352.04 -63.8935 352.187 -129.63 286.907 C -195.785 221.212 -195.932 111.061 -130.291 44.9613 C -64.2327 -21.5587 46.5268 -21.7064 112.991 44.2976 C 179.878 110.721 180.026 222.091 113.658 288.922 C 46.8687 356.177 -65.1154 356.326 -132.315 289.591 C -199.939 222.434 -200.089 109.834 -132.986 42.2657 C -65.4602 -25.73 47.7588 -25.8802 115.698 41.5909 C 184.067 109.488 184.217 223.328 116.376 291.64 C 48.1063 360.383 -66.3576 360.534 -135.044 292.32 C -204.162 223.677 -204.314 108.587 -135.727 39.5253 C -66.708 -29.9705 49.0112 -30.1231 118.45 38.8395 C 188.325 108.235 188.478 224.586 119.138 294.403 C 49.3644 364.658 -67.6203 364.812 -137.818 295.095 C -208.455 224.94 -208.609 107.319 -138.512 36.7398 C -67.9764 -34.2808 50.2842 -34.4359 121.247 36.0427 C 192.652 106.961 192.808 225.864 121.947 297.211 C 50.6432 369.004 -68.9037 369.16 -140.638 297.914 C -212.818 226.224 -212.975 106.03 -141.343 33.9086 C -69.2656 -38.6617 51.5781 -38.8193 124.089 33.2002 C 197.051 105.667 197.209 227.163 124.801 300.066 C 51.9429 373.42 -70.2081 373.579 -143.503 300.78 C -217.252 227.529 -217.412 104.721 -144.22 31.0313 C -70.5758 -43.114 52.893 -43.2742 126.978 30.3114 C 201.521 104.352 201.682 228.483 127.701 302.966 C 53.2637 377.908 -71.5337 378.07 -146.416 303.692 C -221.759 228.855 -221.921 103.39 -147.144 28.1073 C -71.9073 -47.6384 54.2293 -47.8012 129.914 27.3758 C 206.064 103.015 206.227 229.825 130.648 305.914 C 54.6058 382.469 -72.8806 382.633 -149.375 306.651 C -226.338 230.203 -226.503 102.038 -150.115 25.1362 C -73.2602 -52.2358 55.587 -52.4011 132.897 24.393 C 210.68 101.656 210.846 231.188 133.643 308.909 C 55.9696 387.103 -74.2492 387.27 -152.382 309.658 C -230.99 231.572 -231.158 100.663 -153.134 22.1174 C -74.6348 -56.9069 56.9665 -57.0749 135.928 21.3623 C 215.369 100.276 215.538 232.573 136.686 311.951 C 57.3551 391.812 -75.6397 391.981 -155.437 312.712 C -235.717 232.963 -235.887 99.2675 -156.201 19.0504 C -76.0314 -61.6525 58.368 -61.8231 139.007 18.2833 C 220.134 98.8743 220.305 233.98 139.777 315.043 C 58.7628 396.595 -77.0523 396.767 -158.54 315.816 C -240.519 234.376 -240.692 97.8493 -159.316 15.9347 C -77.4501 -66.4734 59.7917 -66.6467 142.135 15.1556 C 224.973 97.45 225.147 235.409 142.917 318.183 C 60.1926 401.454 -78.4872 401.628 -161.693 318.968 C -245.397 235.812 -245.572 96.4088 -162.481 12.7699 C -78.8912 -71.3703 61.2379 -71.5463 145.312 11.9785 C 229.89 96.0032 230.066 236.861 146.107 321.372 C 61.6451 406.389 -79.9447 406.566 -164.895 322.17 C -250.352 237.27 -250.53 94.9456 -165.695 9.55529 C -80.355 -76.3441 62.7068 -76.5229 148.539 8.75159 C 234.883 94.5338 235.062 238.336 149.346 324.612 C 63.1202 411.401 -81.425 411.582 -168.147 325.422 C -255.384 238.751 -255.565 93.4596 -168.96 6.2905 C -81.8416 -81.3956 64.1985 -81.5771 151.817 5.47432 C 239.954 93.0414 240.136 239.833 152.636 327.902 C 64.6184 416.492 -82.9283 416.675 -171.45 328.725 C -260.494 240.255 -260.678 91.9505 -172.275 2.97496 C -83.3513 -86.5256 65.7135 -86.7099 155.145 2.14617 C 245.103 91.5259 245.288 241.354 155.977 331.243 C 66.1397 421.662 -84.4549 421.847 -174.804 332.078 C -265.683 241.782 -265.87 90.418 -175.642 -0.39186 C -84.8844 -91.7348 67.2518 -91.922 158.525 -1.23337 C 250.333 89.9869 250.521 242.898 159.369 334.636 C 67.6846 426.911 -86.005 427.099 -178.209 335.484 C -270.953 243.333 -271.142 88.862 -179.06 -3.81046 C -86.4411 -97.0242 68.8138 -97.2142 161.956 -4.66484 C 255.642 88.4243 255.833 244.466 162.814 338.081 C 69.2531 432.24 -87.5789 432.432 -181.667 338.942 C -276.302 244.907 -276.495 87.2821 -182.531 -7.28139 C -88.0216 -102.394 70.3996 -102.587 165.44 -8.14876 C 261.033 86.8379 261.226 246.058 166.311 341.578 C 70.8456 437.651 -89.1768 437.846 -185.178 342.452 C -281.734 246.506 -281.929 85.6782 -186.055 -10.8052 C -89.6261 -107.846 72.0096 -108.042 168.978 -11.6857 C 266.504 85.226 266.702 247.67 169.865 345.125"/>
  <path display="inline" fill="none" fill-opacity="0.50273" fill-rule="nonzero" stroke="url(#imagebot_12)" stroke-width="1.25641" stroke-linecap="round" stroke-miterlimit="4" stroke-opacity="0.25098" id="imagebot_11" transform="translate(5.70937 4.00205) matrix(1.78621 0 0 1.79542 205.044 -117.505)" d="M 155.486 247.159 A 87.6291 87.1797 0 1 1 -19.7727 247.159 A 87.6291 87.1797 0 1 1 155.486 247.159 Z"/>
  <path display="inline" fill="none" fill-opacity="0.50273" fill-rule="nonzero" stroke="url(#imagebot_10)" stroke-width="2.51283" stroke-linecap="round" stroke-miterlimit="4" stroke-opacity="0.25098" id="imagebot_9" transform="translate(5.70937 4.00205) matrix(1.78621 0 0 1.79542 205.044 -117.505)" d="M 155.486 247.159 A 87.6291 87.1797 0 1 1 -19.7727 247.159 A 87.6291 87.1797 0 1 1 155.486 247.159 Z"/>
  <path display="inline" fill="none" stroke="url(#imagebot_8)" stroke-width="1.7311" stroke-miterlimit="4" stroke-opacity="0.25098" id="imagebot_7" transform="translate(5.70937 4.00205) matrix(1.07464 0 0 1.02381 -25.8007 -8.68956)" d="M 390.961 327.149 A 63.3626 66.5083 0 1 1 264.236 327.149 A 63.3626 66.5083 0 1 1 390.961 327.149 Z"/>
  <path display="inline" fill="none" stroke="url(#imagebot_6)" stroke-width="1.7311" stroke-miterlimit="4" stroke-opacity="0.25098" id="imagebot_5" transform="translate(5.70937 4.00205) matrix(1.07464 0 0 1.02381 -25.8007 -8.68956)" d="M 390.961 327.149 A 63.3626 66.5083 0 1 1 264.236 327.149 A 63.3626 66.5083 0 1 1 390.961 327.149 Z"/>
  <title>imagebot_4</title>
 </g>
 <g display="inline" id="imagebot_2">
  <path display="inline" fill="none" fill-opacity="0.50273" fill-rule="nonzero" stroke="#ffffff" stroke-width="1.08959" stroke-linecap="round" stroke-miterlimit="4" stroke-opacity="0.37647" id="imagebot_3" transform="translate(5.70937 4.00205) matrix(1.68414 0 0 1.69283 211.97 -92.1473)" d="M 155.486 247.159 A 87.6291 87.1797 0 1 1 -19.7727 247.159 A 87.6291 87.1797 0 1 1 155.486 247.159 Z"/>
  <title>imagebot_2</title>
 </g>
 <metadata>image/svg+xmlOpen Clip Art Library45 Record Album2007-08-18T16:13:11A 45 record album. \n\nThe spiral grooves really slow a computer down so if you're editing it on older system, you may want to delete those two objects first thing.http://openclipart.org/detail/4835/45-record-album-by-masonmousemasonmouse45 record45 recordalbumalbumclip artcliparthow i did itimagemediamusicmusicpngpublic domainsvgvinylvinyl</metadata>
</svg>