<?xml version="1.0" encoding="utf-8"?>
<!-- Generator: Adobe Illustrator 16.0.0, SVG Export Plug-In . SVG Version: 6.00 Build 0)  -->
<!DOCTYPE svg PUBLIC "-//W3C//DTD SVG 1.1//EN" "http://www.w3.org/Graphics/SVG/1.1/DTD/svg11.dtd">
<svg version="1.1" id="action_bar_light_1_" xmlns="http://www.w3.org/2000/svg" xmlns:xlink="http://www.w3.org/1999/xlink"
	 x="0px" y="0px" width="26px" height="22px" viewBox="0 0 26 22" enable-background="new 0 0 26 22" xml:space="preserve">
<g id="Shape_1">
	<g>
		<path fill="#858585" d="M24.834,17.762l-8.447-6.151c-0.602-0.438-1.342-0.491-1.967-0.215c1.6-3.433,0.616-7.687-2.459-9.928
			C8.572-1,3.908-0.106,1.563,3.459C0.428,5.187,0,7.277,0.358,9.347c0.358,2.068,1.459,3.864,3.099,5.059
			c1.639,1.193,3.625,1.646,5.59,1.268c1.601-0.307,3.03-1.131,4.118-2.359c-0.022,0.712,0.286,1.42,0.884,1.854l8.445,6.152
			c0.934,0.681,2.215,0.434,2.859-0.548C26,19.79,25.767,18.443,24.834,17.762z M11.993,11.059
			c-1.636,2.487-4.889,3.109-7.251,1.388c-2.362-1.719-2.954-5.143-1.32-7.632c1.637-2.486,4.89-3.108,7.252-1.387
			c1.143,0.832,1.91,2.084,2.159,3.526C13.083,8.397,12.784,9.855,11.993,11.059z"/>
	</g>
</g>
</svg>
