<?xml version="1.0" encoding="iso-8859-1"?>
<!-- Generator: Adobe Illustrator 15.0.2, SVG Export Plug-In . SVG Version: 6.00 Build 0)  -->
<!DOCTYPE svg PUBLIC "-//W3C//DTD SVG 1.1//EN" "http://www.w3.org/Graphics/SVG/1.1/DTD/svg11.dtd">
<svg version="1.1" xmlns="http://www.w3.org/2000/svg" xmlns:xlink="http://www.w3.org/1999/xlink" x="0px" y="0px" width="48px"
	 height="40px" viewBox="0 0 48 40" style="enable-background:new 0 0 48 40;" xml:space="preserve">
<g id="phone">
	<path style="fill:#FFFFFF;" d="M30,5H18c-1.104,0-2,0.896-2,2v24c0,1.104,0.896,2,2,2h12c1.104,0,2-0.896,2-2V7
		C32,5.896,31.104,5,30,5z M26,32h-4c-0.552,0-1-0.447-1-1s0.448-1,1-1h4c0.553,0,1,0.447,1,1S26.553,32,26,32z M30,29H18V9h12V29z
		 M26,8h-4V7h4V8z"/>
</g>
<g id="Ebene_1">
</g>
</svg>
