<?xml version="1.0" encoding="iso-8859-1"?>
<!-- Generator: Adobe Illustrator 15.0.2, SVG Export Plug-In . SVG Version: 6.00 Build 0)  -->
<!DOCTYPE svg PUBLIC "-//W3C//DTD SVG 1.1//EN" "http://www.w3.org/Graphics/SVG/1.1/DTD/svg11.dtd">
<svg version="1.1" xmlns="http://www.w3.org/2000/svg" xmlns:xlink="http://www.w3.org/1999/xlink" x="0px" y="0px" width="48px"
	 height="40px" viewBox="0 0 48 40" style="enable-background:new 0 0 48 40;" xml:space="preserve">
<g id="search">
	<path style="fill:#FFFFFF;" d="M22,7c-4.418,0-8,3.582-8,8c0,4.419,3.582,8,8,8s8-3.581,8-8C30,10.582,26.418,7,22,7z M22,21
		c-3.314,0-6-2.686-6-6s2.686-6,6-6c3.314,0,6,2.686,6,6S25.314,21,22,21z"/>
	<polygon style="fill:#FFFFFF;" points="33.915,30.111 32.933,32.41 32.067,32.91 29.585,32.611 25.335,25.25 29.665,22.75 	"/>
</g>
<g id="Ebene_1">
</g>
</svg>
