<?xml version="1.0" encoding="iso-8859-1"?>
<!-- Generator: Adobe Illustrator 15.0.2, SVG Export Plug-In . SVG Version: 6.00 Build 0)  -->
<!DOCTYPE svg PUBLIC "-//W3C//DTD SVG 1.1//EN" "http://www.w3.org/Graphics/SVG/1.1/DTD/svg11.dtd">
<svg version="1.1" xmlns="http://www.w3.org/2000/svg" xmlns:xlink="http://www.w3.org/1999/xlink" x="0px" y="0px" width="48px"
	 height="40px" viewBox="0 0 48 40" style="enable-background:new 0 0 48 40;" xml:space="preserve">
<g id="sources">
	<path style="fill:#FFFFFF;" d="M37,30.001c-8,0-10.641-2.468-13.475-4.645C21.181,23.556,20,22.001,14,22.001v-3V19v0.001
		c0,0,6.042-0.626,11.353,3.977C28.047,25.047,30,27.001,37,27.001l0.917,2.166L37,30.001z"/>
	<polygon style="fill:#FFFFFF;" points="39.166,29.894 34.607,33.771 33.107,32.009 37.123,28.592 33.531,24.367 35.389,22.787 
		40.481,28.775 	"/>
	<path style="fill:#FFFFFF;" d="M14,18.771v3c7,0,8.807-2.021,11.353-3.977C28.047,15.725,30,13.771,37,13.771l0.708-2.562
		L37,10.771c-8,0-10.641,2.468-13.475,4.645C21.181,17.216,20,18.771,14,18.771z"/>
	<polygon style="fill:#FFFFFF;" points="39.166,10.878 34.607,7 33.107,8.763 37.123,12.18 33.531,16.404 35.389,17.984 
		40.481,11.996 	"/>
	<path style="fill:#FFFFFF;" d="M21.895,26.321c-0.91-0.729-1.697-1.327-2.895-1.734v0.902v2.114V28h-9V13h9v3.196
		c1.246-0.407,2.069-1.009,2.988-1.745c0.004-0.003,0.008-0.006,0.012-0.01V10H7v21h15v-4.601
		C21.966,26.373,21.927,26.347,21.895,26.321z"/>
</g>
<g id="Ebene_1">
</g>
</svg>
