<?xml version="1.0" encoding="iso-8859-1"?>
<!-- Generator: Adobe Illustrator 15.0.2, SVG Export Plug-In . SVG Version: 6.00 Build 0)  -->
<!DOCTYPE svg PUBLIC "-//W3C//DTD SVG 1.1//EN" "http://www.w3.org/Graphics/SVG/1.1/DTD/svg11.dtd">
<svg version="1.1" xmlns="http://www.w3.org/2000/svg" xmlns:xlink="http://www.w3.org/1999/xlink" x="0px" y="0px" width="48px"
	 height="40px" viewBox="0 0 48 40" style="enable-background:new 0 0 48 40;" xml:space="preserve">
<g id="sync">
	<g>
		<path style="fill:#FFFFFF;" d="M37.969,17.775l-2.901,2.902c0.014-0.227,0.04-0.449,0.04-0.678c0-6.075-4.925-11-11-11
			c-1.822,0-3.537,0.45-5.052,1.235l2.384,2.384c0.835-0.303,1.73-0.476,2.668-0.476c4.332,0,7.857,3.524,7.857,7.857
			c0,0.212-0.018,0.42-0.034,0.627l-2.852-2.852l-2.222,2.223l6.667,6.667l6.667-6.667L37.969,17.775z"/>
		<path style="fill:#FFFFFF;" d="M24.107,27.857c-4.332,0-7.857-3.525-7.857-7.857c0-0.082,0.016-0.159,0.018-0.24l2.845,2.844
			l2.222-2.223l-6.667-6.667L8,20.381l2.223,2.223l2.896-2.896c-0.003,0.098-0.012,0.194-0.012,0.292c0,6.075,4.924,11,11,11
			c1.895,0,3.677-0.479,5.232-1.322l-2.368-2.369C26.083,27.658,25.118,27.857,24.107,27.857z"/>
	</g>
</g>
<g id="Ebene_1">
</g>
</svg>
