<?xml version="1.0" encoding="iso-8859-1"?>
<!-- Generator: Adobe Illustrator 15.0.2, SVG Export Plug-In . SVG Version: 6.00 Build 0)  -->
<!DOCTYPE svg PUBLIC "-//W3C//DTD SVG 1.1//EN" "http://www.w3.org/Graphics/SVG/1.1/DTD/svg11.dtd">
<svg version="1.1" id="Ebene_1" xmlns="http://www.w3.org/2000/svg" xmlns:xlink="http://www.w3.org/1999/xlink" x="0px" y="0px"
	 width="239.5px" height="68px" viewBox="0 0 239.5 68" style="enable-background:new 0 0 239.5 68;" xml:space="preserve">
<g>
	<path style="fill:#0079C1;" d="M37.231,34.832c9.242,3.484,13.374,15.217,9.231,26.203c-0.573,1.52-1.28,2.945-2.089,4.266
		c3.474-1.062,6.794-2.713,9.807-4.943c0.018-0.067,0.039-0.133,0.059-0.198c3.861-13.845-2.146-27.613-13.415-30.756
		c-9.905-2.766-20.583,3.607-25.642,14.592C20.233,35.879,29.32,31.848,37.231,34.832z"/>
	<path style="fill:#0079C1;" d="M18.304,60.041c5.999-3.889,9.679-10.357,8.219-14.447c-1.286-3.598-6.115-4.158-11.34-1.6
		c2.34-13.258,13.522-23.669,27.549-24.477c9.692-0.558,18.565,3.598,24.393,10.477c-0.965-7.512-4.538-14.72-10.634-20.154
		c-13.43-11.968-34.022-10.785-45.99,2.645c-11.97,13.427-10.785,34.019,2.645,45.988c1.072,0.957,2.19,1.828,3.344,2.613
		C17.091,60.779,17.696,60.432,18.304,60.041z"/>
	<path style="fill:#0079C1;" d="M30.607,42.594c4.156,3.99,2.808,12.139-3.013,18.195c-1.451,1.512-3.047,2.75-4.684,3.695
		c2.393,0.938,4.87,1.58,7.377,1.932c0.585-0.635,1.151-1.311,1.689-2.033c6.051-8.117,6.677-18.658,1.398-23.543
		c-4.64-4.295-12.299-2.787-18.193,3.154C20.612,39.912,27.05,39.174,30.607,42.594z"/>
	<path style="fill:#FFFFFF;" d="M90.562,33.432c2.146,0,3.242,1.673,2.435,3.72l-5.754,14.57c-0.809,2.047-2.574,3.721-3.924,3.721
		c-1.351,0-3.137-1.666-3.969-3.7l-1.88-4.599c-0.833-2.037-2.192-2.035-3.022,0.002l-1.869,4.593
		c-0.83,2.038-2.613,3.704-3.963,3.704c-1.351,0-3.131-1.668-3.956-3.707l-5.907-14.596c-0.826-2.039,0.275-3.708,2.445-3.708
		c2.171,0,4.56,1.693,5.309,3.761l1.299,3.591c0.749,2.069,2.012,2.084,2.806,0.03l1.414-3.651c0.794-2.052,2.559-3.73,3.921-3.73
		c1.361,0,3.131,1.678,3.933,3.727l1.432,3.662c0.802,2.049,2.052,2.025,2.779-0.051l1.247-3.562
		C86.064,35.131,88.416,33.432,90.562,33.432z"/>
	<path style="fill:#FFFFFF;" d="M116.989,44.762c0,0.857-1.8,1.557-4,1.557h-7.505c-2.2,0-3.53,1.099-2.955,2.438
		c0,0,0,0,1.183,0.851c1.182,0.85,2.522,1.274,4.022,1.274c2.623,0,5.521-0.733,8.692-2.205v0.822c0,2.199-1.134,4.508-2.52,5.127
		c0,0,0,0-1.622,0.481c-1.621,0.484-3.687,0.726-6.194,0.726c-2.711,0-5.017-0.504-6.92-1.515c-1.902-1.008-3.326-2.377-4.271-4.106
		s-1.416-3.688-1.416-5.881c0-2.162,0.472-4.099,1.416-5.808s2.368-3.049,4.271-4.021c1.903-0.973,4.209-1.459,6.92-1.459
		c1.787,0,3.514,0.385,5.179,1.156c1.665,0.771,3.034,2.03,4.108,3.782S116.989,41.994,116.989,44.762L116.989,44.762z
		 M105.68,42.471c2.2,0,3.843-1.145,3.65-2.541c0,0,0,0-0.698-0.844c-0.7-0.844-1.706-1.266-3.017-1.266
		c-1.298,0-2.347,0.43-3.147,1.287c-0.799,0.856-1.199,1.979-1.199,3.362L105.68,42.471L105.68,42.471z"/>
	<path style="fill:#FFFFFF;" d="M143.402,44.588c0,2.553-0.496,4.668-1.491,6.348c-0.994,1.681-2.263,2.914-3.806,3.707
		s-3.113,1.189-4.715,1.189c-1.152,0-2.149-0.133-2.994-0.398c-0.844-0.268-1.498-0.555-1.967-0.865
		c-0.47-0.31-0.955-0.682-1.461-1.112l0,0c0,1.094-1.752,1.987-3.893,1.987s-3.892-1.799-3.892-4V29.475c0-2.201,1.751-4,3.892-4
		s3.893,1.799,3.893,4v1.254c0,2.201,0.616,3.623,1.369,3.16c0,0,0,0,1.01-0.338c1.01-0.34,2.178-0.508,3.504-0.508
		c1.771,0,3.336,0.32,4.691,0.961c1.354,0.643,2.461,1.51,3.318,2.605s1.496,2.324,1.914,3.688
		C143.193,41.658,143.402,43.09,143.402,44.588z M135.208,44.416c0-1.889-0.425-3.326-1.274-4.314
		c-0.853-0.985-1.859-1.479-3.027-1.479c-1.167,0-2.479,0.469-3.936,1.403v4.412c0,2.201,1.084,4.701,2.407,5.558c0,0,0,0,1.526,0
		c0.966,0,1.926-0.394,2.877-1.179C134.732,48.032,135.208,46.564,135.208,44.416z"/>
	<path style="fill:#FFFFFF;" d="M153.428,51.443c0,2.201-1.756,4-3.902,4s-3.902-1.799-3.902-4V37.432c0-2.199,1.756-4,3.902-4
		s3.902,1.8,3.902,4V51.443z M152.801,28.35c0,0.908-0.324,1.68-0.974,2.314c-0.647,0.635-1.42,0.951-2.312,0.951
		c-0.605,0-1.158-0.146-1.654-0.434c-0.498-0.287-0.892-0.68-1.18-1.178c-0.289-0.498-0.433-1.049-0.433-1.654
		c0-0.893,0.317-1.664,0.951-2.314c0.635-0.648,1.405-0.973,2.313-0.973c0.894,0,1.664,0.324,2.312,0.973
		C152.477,26.686,152.801,27.457,152.801,28.35z"/>
	<path style="fill:#FFFFFF;" d="M180.081,51.443c0,2.201-1.752,4-3.894,4c-2.141,0-3.892-1.799-3.892-4v-3.416
		c0-2.201,0-4.104,0-4.229c0-0.123-0.089-1.246-0.198-2.493c0,0,0,0-0.396-0.9s-1.267-1.353-2.606-1.353
		c-0.634,0-1.191,0.119-1.675,0.357c-0.483,0.237-0.916,0.545-1.298,0.918c-0.382,0.375-0.702,0.735-0.962,1.082
		c-0.261,0.346-0.527,0.713-0.802,1.104v8.93c0,2.201-1.752,4-3.893,4s-3.892-1.799-3.892-4V37.432c0-2.199,1.751-4,3.892-4
		s3.893,0.711,3.893,1.578c0,0.869,1.104,0.574,2.455-0.652c0,0,0,0,1.231-0.525c1.233-0.527,2.606-0.789,4.12-0.789
		c5.275,0,7.914,3.156,7.914,9.472L180.081,51.443L180.081,51.443z"/>
	<path style="fill:#FFFFFF;" d="M206.843,44.416c0,2.191-0.477,4.145-1.428,5.859c-0.951,1.717-2.375,3.069-4.271,4.063
		c-1.896,0.996-4.205,1.492-6.931,1.492c-2.725,0-5.034-0.496-6.93-1.492c-1.896-0.994-3.316-2.348-4.261-4.063
		c-0.943-1.715-1.416-3.668-1.416-5.859c0-1.658,0.263-3.164,0.789-4.52c0.525-1.356,1.326-2.556,2.399-3.601
		s2.396-1.85,3.968-2.412c1.572-0.562,3.389-0.842,5.449-0.842c2.076,0,3.91,0.283,5.503,0.854c1.595,0.568,2.912,1.365,3.957,2.389
		c1.046,1.023,1.835,2.221,2.368,3.59S206.843,42.758,206.843,44.416z M198.646,44.416c0-1.744-0.379-3.111-1.137-4.098
		c-0.756-0.988-1.855-1.48-3.297-1.48c-1.427,0-2.52,0.492-3.275,1.48c-0.758,0.986-1.135,2.354-1.135,4.098
		c0,1.73,0.381,3.1,1.146,4.107c0.765,1.01,1.853,1.514,3.266,1.514c1.441,0,2.541-0.5,3.298-1.502
		C198.27,47.533,198.646,46.16,198.646,44.416z"/>
	<path style="fill:#FFFFFF;" d="M225.884,49.021c0,2.018-0.739,3.658-2.217,4.92c-1.479,1.262-3.673,1.891-6.584,1.891
		c-1.63,0-3.079-0.148-4.347-0.443c-1.27-0.295-2.652-0.717-4.151-1.264v-1.537c0-2.199,1.103-3.406,2.45-2.68c0,0,0,0,0.966,0.389
		c0.965,0.389,2.024,0.584,3.179,0.584c1.946,0,2.92-0.533,2.92-1.6c0-0.361-0.142-0.682-0.423-0.963
		c-0.28-0.281-0.771-0.599-1.471-0.951c-0.698-0.354-1.632-0.773-2.8-1.264c-1.442-0.636-2.667-1.486-3.676-2.554
		c-1.01-1.067-1.515-2.37-1.515-3.914c0-1.096,0.335-2.146,1.007-3.155c0.67-1.011,1.683-1.834,3.037-2.478
		c1.354-0.641,2.99-0.961,4.908-0.961c0.461,0,1.049,0.031,1.762,0.096c0.715,0.066,1.614,0.234,2.703,0.508
		c1.088,0.275,2.123,0.664,3.104,1.168v1.385c0,2.201-0.381,3.773-0.848,3.496c0,0,0,0-0.31-0.188s-0.724-0.396-1.243-0.627
		c-0.52-0.229-1.129-0.437-1.827-0.616c-0.698-0.181-1.416-0.271-2.151-0.271c-0.895,0-1.506,0.172-1.838,0.518
		c-0.332,0.349-0.498,0.693-0.498,1.039c0,0.359,0.174,0.695,0.521,1.007c0.347,0.309,1.117,0.694,2.313,1.155
		c1.729,0.664,3.112,1.345,4.15,2.043c1.038,0.699,1.777,1.468,2.217,2.304C225.663,46.895,225.884,47.883,225.884,49.021z"/>
</g>
</svg>
