<?xml version="1.0" encoding="iso-8859-1"?>
<!-- Generator: Adobe Illustrator 15.0.2, SVG Export Plug-In . SVG Version: 6.00 Build 0)  -->
<!DOCTYPE svg PUBLIC "-//W3C//DTD SVG 1.0//EN" "http://www.w3.org/TR/2001/REC-SVG-20010904/DTD/svg10.dtd">
<svg version="1.0" id="Ebene_1" xmlns="http://www.w3.org/2000/svg" xmlns:xlink="http://www.w3.org/1999/xlink" x="0px" y="0px"
	 width="580px" height="580px" viewBox="0 0 580 580" style="enable-background:new 0 0 580 580;" xml:space="preserve">
<g id="remote_circle_touch">
	<path style="fill:#3F3F3F;" d="M290,1C130.39,1,1,130.39,1,290c0,159.61,129.39,289,289,289c159.61,0,289-129.39,289-289
		C579,130.39,449.61,1,290,1z M289.883,370.852c-44.652,0-80.851-36.198-80.851-80.852c0-44.653,36.198-80.852,80.851-80.852
		c44.653,0,80.852,36.199,80.852,80.852C370.734,334.653,334.536,370.852,289.883,370.852z"/>
	<g>
		
			<line style="fill:none;stroke:#FFFFFF;stroke-width:2;stroke-miterlimit:10;" x1="495.262" y1="329.129" x2="499.765" y2="321.336"/>
		
			<line style="fill:none;stroke:#FFFFFF;stroke-width:2;stroke-miterlimit:10;stroke-dasharray:9.3122,9.3122;" x1="504.424" y1="313.273" x2="511.412" y2="301.18"/>
		<polyline style="fill:none;stroke:#FFFFFF;stroke-width:2;stroke-miterlimit:10;" points="513.742,297.148 518.245,289.355 
			513.742,281.562 		"/>
		
			<line style="fill:none;stroke:#FFFFFF;stroke-width:2;stroke-miterlimit:10;stroke-dasharray:9.3125,9.3125;" x1="509.083" y1="273.5" x2="502.094" y2="261.405"/>
		
			<line style="fill:none;stroke:#FFFFFF;stroke-width:2;stroke-miterlimit:10;" x1="499.765" y1="257.374" x2="495.262" y2="249.581"/>
	</g>
	<g>
		
			<line style="fill:none;stroke:#FFFFFF;stroke-width:2;stroke-miterlimit:10;" x1="426.643" y1="329.129" x2="431.146" y2="321.336"/>
		
			<line style="fill:none;stroke:#FFFFFF;stroke-width:2;stroke-miterlimit:10;stroke-dasharray:9.312,9.312;" x1="435.805" y1="313.273" x2="442.793" y2="301.18"/>
		<polyline style="fill:none;stroke:#FFFFFF;stroke-width:2;stroke-miterlimit:10;" points="445.122,297.148 449.625,289.355 
			445.122,281.562 		"/>
		
			<line style="fill:none;stroke:#FFFFFF;stroke-width:2;stroke-miterlimit:10;stroke-dasharray:9.3123,9.3123;" x1="440.463" y1="273.5" x2="433.475" y2="261.405"/>
		
			<line style="fill:none;stroke:#FFFFFF;stroke-width:2;stroke-miterlimit:10;" x1="431.146" y1="257.374" x2="426.643" y2="249.581"/>
	</g>
	<g>
		
			<line style="fill:none;stroke:#FFFFFF;stroke-width:2;stroke-miterlimit:10;" x1="84.504" y1="249.583" x2="80.001" y2="257.376"/>
		
			<line style="fill:none;stroke:#FFFFFF;stroke-width:2;stroke-miterlimit:10;stroke-dasharray:9.3125,9.3125;" x1="75.342" y1="265.438" x2="68.353" y2="277.533"/>
		<polyline style="fill:none;stroke:#FFFFFF;stroke-width:2;stroke-miterlimit:10;" points="66.023,281.564 61.521,289.357 
			66.023,297.15 		"/>
		
			<line style="fill:none;stroke:#FFFFFF;stroke-width:2;stroke-miterlimit:10;stroke-dasharray:9.3122,9.3122;" x1="70.683" y1="305.213" x2="77.671" y2="317.307"/>
		
			<line style="fill:none;stroke:#FFFFFF;stroke-width:2;stroke-miterlimit:10;" x1="80.001" y1="321.338" x2="84.504" y2="329.131"/>
	</g>
	<g>
		
			<line style="fill:none;stroke:#FFFFFF;stroke-width:2;stroke-miterlimit:10;" x1="153.123" y1="249.583" x2="148.62" y2="257.376"/>
		
			<line style="fill:none;stroke:#FFFFFF;stroke-width:2;stroke-miterlimit:10;stroke-dasharray:9.3123,9.3123;" x1="143.961" y1="265.438" x2="136.973" y2="277.533"/>
		<polyline style="fill:none;stroke:#FFFFFF;stroke-width:2;stroke-miterlimit:10;" points="134.644,281.564 130.141,289.357 
			134.644,297.15 		"/>
		
			<line style="fill:none;stroke:#FFFFFF;stroke-width:2;stroke-miterlimit:10;stroke-dasharray:9.312,9.312;" x1="139.303" y1="305.213" x2="146.291" y2="317.307"/>
		
			<line style="fill:none;stroke:#FFFFFF;stroke-width:2;stroke-miterlimit:10;" x1="148.62" y1="321.338" x2="153.123" y2="329.131"/>
	</g>
	<g>
		
			<line style="fill:none;stroke:#FFFFFF;stroke-width:2;stroke-miterlimit:10;" x1="329.655" y1="83.977" x2="321.861" y2="79.474"/>
		
			<line style="fill:none;stroke:#FFFFFF;stroke-width:2;stroke-miterlimit:10;stroke-dasharray:9.3122,9.3122;" x1="313.8" y1="74.814" x2="301.706" y2="67.826"/>
		<polyline style="fill:none;stroke:#FFFFFF;stroke-width:2;stroke-miterlimit:10;" points="297.675,65.496 289.882,60.993 
			282.089,65.496 		"/>
		
			<line style="fill:none;stroke:#FFFFFF;stroke-width:2;stroke-miterlimit:10;stroke-dasharray:9.3125,9.3125;" x1="274.026" y1="70.155" x2="261.932" y2="77.145"/>
		<line style="fill:none;stroke:#FFFFFF;stroke-width:2;stroke-miterlimit:10;" x1="257.9" y1="79.474" x2="250.107" y2="83.977"/>
	</g>
	<g>
		
			<line style="fill:none;stroke:#FFFFFF;stroke-width:2;stroke-miterlimit:10;" x1="329.655" y1="152.596" x2="321.861" y2="148.093"/>
		
			<line style="fill:none;stroke:#FFFFFF;stroke-width:2;stroke-miterlimit:10;stroke-dasharray:9.312,9.312;" x1="313.8" y1="143.434" x2="301.706" y2="136.445"/>
		<polyline style="fill:none;stroke:#FFFFFF;stroke-width:2;stroke-miterlimit:10;" points="297.675,134.116 289.882,129.613 
			282.089,134.116 		"/>
		
			<line style="fill:none;stroke:#FFFFFF;stroke-width:2;stroke-miterlimit:10;stroke-dasharray:9.3123,9.3123;" x1="274.026" y1="138.775" x2="261.932" y2="145.764"/>
		
			<line style="fill:none;stroke:#FFFFFF;stroke-width:2;stroke-miterlimit:10;" x1="257.9" y1="148.093" x2="250.107" y2="152.596"/>
	</g>
	<g>
		
			<line style="fill:none;stroke:#FFFFFF;stroke-width:2;stroke-miterlimit:10;" x1="250.11" y1="494.735" x2="257.903" y2="499.238"/>
		
			<line style="fill:none;stroke:#FFFFFF;stroke-width:2;stroke-miterlimit:10;stroke-dasharray:9.312,9.312;" x1="265.966" y1="503.897" x2="278.06" y2="510.886"/>
		<polyline style="fill:none;stroke:#FFFFFF;stroke-width:2;stroke-miterlimit:10;" points="282.091,513.215 289.884,517.718 
			297.677,513.215 		"/>
		
			<line style="fill:none;stroke:#FFFFFF;stroke-width:2;stroke-miterlimit:10;stroke-dasharray:9.3123,9.3123;" x1="305.739" y1="508.556" x2="317.834" y2="501.567"/>
		
			<line style="fill:none;stroke:#FFFFFF;stroke-width:2;stroke-miterlimit:10;" x1="321.865" y1="499.238" x2="329.658" y2="494.735"/>
	</g>
	<g>
		
			<line style="fill:none;stroke:#FFFFFF;stroke-width:2;stroke-miterlimit:10;" x1="250.11" y1="426.115" x2="257.902" y2="430.618"/>
		
			<line style="fill:none;stroke:#FFFFFF;stroke-width:2;stroke-miterlimit:10;stroke-dasharray:9.3123,9.3123;" x1="265.966" y1="435.277" x2="278.06" y2="442.267"/>
		<polyline style="fill:none;stroke:#FFFFFF;stroke-width:2;stroke-miterlimit:10;" points="282.092,444.597 289.884,449.1 
			297.676,444.597 		"/>
		
			<line style="fill:none;stroke:#FFFFFF;stroke-width:2;stroke-miterlimit:10;stroke-dasharray:9.3126,9.3126;" x1="305.739" y1="439.938" x2="317.834" y2="432.948"/>
		
			<line style="fill:none;stroke:#FFFFFF;stroke-width:2;stroke-miterlimit:10;" x1="321.865" y1="430.618" x2="329.658" y2="426.115"/>
	</g>
</g>
</svg>
