<?xml version="1.0" encoding="iso-8859-1"?>
<!-- Generator: Adobe Illustrator 15.0.2, SVG Export Plug-In . SVG Version: 6.00 Build 0)  -->
<!DOCTYPE svg PUBLIC "-//W3C//DTD SVG 1.0//EN" "http://www.w3.org/TR/2001/REC-SVG-20010904/DTD/svg10.dtd">
<svg version="1.0" id="Ebene_1" xmlns="http://www.w3.org/2000/svg" xmlns:xlink="http://www.w3.org/1999/xlink" x="0px" y="0px"
	 width="94px" height="70px" viewBox="0 0 94 70" style="enable-background:new 0 0 94 70;" xml:space="preserve">
<g id="mode_tap">
	<g>
		<path style="fill:#FFFFFF;" d="M30.001,30c0,21,0,38,0,38h34V30C64.001,9,30.001,9,30.001,30z M58.001,64h-21v-3h21V64z
			 M39.001,58v-3h17v3H39.001z M59.268,35.059c-1.569,9.234-21.899,9.268-23.593,0.197C34.039,26.484,34.039,24,34.039,24
			c0-8,26.182-8,26.182,0C60.221,24,60.21,29.502,59.268,35.059z"/>
		<path style="fill:#FFFFFF;" d="M37.476,25c0,0,0,2.162,1.207,9.043c1.247,7.115,16.24,7.303,17.396,0.059
			C56.775,29.741,56.784,25,56.784,25C56.784,20,37.476,20,37.476,25z"/>
	</g>
	<path style="fill:#FFFFFF;" d="M27.001,30c0-0.432,0.016-0.854,0.04-1.271c-1.718-1.428-2.813-3.577-2.813-5.979
		c0-4.286,3.487-7.773,7.773-7.773c0.76,0,1.493,0.114,2.188,0.319c1.312-0.966,2.748-1.76,4.265-2.382
		c-1.854-1.222-4.07-1.938-6.453-1.938c-6.492,0-11.773,5.281-11.773,11.773c0,4.703,2.778,8.759,6.773,10.644V30z"/>
	<path style="fill:#FFFFFF;" d="M27.001,38.997c-6.941-2.142-12-8.612-12-16.247c0-9.374,7.626-17,17-17
		c5,0,9.488,2.183,12.602,5.63c0.797-0.083,1.598-0.13,2.398-0.13c0.883,0,1.767,0.054,2.646,0.154
		C45.903,5.606,39.399,1.75,32.001,1.75c-11.579,0-21,9.421-21,21c0,9.854,6.831,18.121,16,20.373V38.997z"/>
</g>
</svg>
