<?xml version="1.0" encoding="iso-8859-1"?>
<!-- Generator: Adobe Illustrator 15.0.2, SVG Export Plug-In . SVG Version: 6.00 Build 0)  -->
<!DOCTYPE svg PUBLIC "-//W3C//DTD SVG 1.0//EN" "http://www.w3.org/TR/2001/REC-SVG-20010904/DTD/svg10.dtd">
<svg version="1.0" id="Ebene_1" xmlns="http://www.w3.org/2000/svg" xmlns:xlink="http://www.w3.org/1999/xlink" x="0px" y="0px"
	 width="94px" height="70px" viewBox="0 0 94 70" style="enable-background:new 0 0 94 70;" xml:space="preserve">
<g id="mode_swipe">
	<g>
		<g>
			<path style="fill:#FFFFFF;" d="M30.001,30c0,21,0,38,0,38h34V30C64.001,9,30.001,9,30.001,30z M58.001,64h-21v-3h21V64z
				 M39.001,58v-3h17v3H39.001z M59.268,35.059c-1.569,9.234-21.899,9.268-23.593,0.197C34.039,26.484,34.039,24,34.039,24
				c0-8,26.182-8,26.182,0C60.221,24,60.21,29.502,59.268,35.059z"/>
			<path style="fill:#FFFFFF;" d="M37.476,25c0,0,0,2.162,1.207,9.043c1.247,7.115,16.24,7.303,17.396,0.059
				C56.775,29.741,56.784,25,56.784,25C56.784,20,37.476,20,37.476,25z"/>
		</g>
		<path style="fill:#FFFFFF;" d="M84.682,24.541l-2.738,2.134l2.531,3.249c-2.388-0.456-5.654-0.911-9.314-0.967
			c-0.366-4.172-1.633-7.875-3.82-11.157l-3.328,2.219c3.826,5.739,4.279,13.216,1.385,22.861l3.832,1.15
			c1.197-3.991,1.867-7.671,2.016-11.071c3.439,0.063,6.521,0.515,8.718,0.945l-3.226,2.514l2.133,2.738l8.215-6.4L84.682,24.541z"
			/>
		<path style="fill:#FFFFFF;" d="M26.071,20.019L22.743,17.8c-2.188,3.282-3.454,6.985-3.82,11.157
			c-3.66,0.056-6.928,0.511-9.315,0.967l2.532-3.249l-2.738-2.134L3,32.756l8.215,6.4l2.133-2.738l-3.228-2.516
			c2.19-0.43,5.27-0.88,8.72-0.943c0.148,3.4,0.817,7.08,2.015,11.071l3.832-1.15C21.792,33.235,22.245,25.758,26.071,20.019z"/>
	</g>
</g>
</svg>
