<?xml version="1.0" encoding="iso-8859-1"?>
<!-- Generator: Adobe Illustrator 15.0.2, SVG Export Plug-In . SVG Version: 6.00 Build 0)  -->
<!DOCTYPE svg PUBLIC "-//W3C//DTD SVG 1.0//EN" "http://www.w3.org/TR/2001/REC-SVG-20010904/DTD/svg10.dtd">
<svg version="1.0" id="Ebene_1" xmlns="http://www.w3.org/2000/svg" xmlns:xlink="http://www.w3.org/1999/xlink" x="0px" y="0px"
	 width="580px" height="580px" viewBox="0 0 580 580" style="enable-background:new 0 0 580 580;" xml:space="preserve">
<g>
	<path style="fill:#3F3F3F;" d="M498.018,89.397L350.682,236.733c12.476,14.228,20.053,32.856,20.053,53.267
		c0,20.92-7.944,39.982-20.981,54.338L497.03,491.614C547.745,439.545,579,368.428,579,290
		C579,212.081,548.152,141.374,498.018,89.397z"/>
	<path style="fill:#3F3F3F;" d="M289.883,209.149c23.164,0,44.036,9.756,58.776,25.364L495.922,87.251
		C443.503,34.018,370.611,1,290,1C211.572,1,140.455,32.256,88.386,82.972l147.16,147.16
		C249.9,217.095,268.964,209.149,289.883,209.149z"/>
	<path style="fill:#3F3F3F;" d="M209.033,290c0-22.654,9.328-43.12,24.34-57.799L86.239,85.067C33.596,137.411,1,209.896,1,290
		c0,80.611,33.018,153.502,86.251,205.921l147.146-147.146C218.789,334.035,209.033,313.163,209.033,290z"/>
	<path style="fill:#3F3F3F;" d="M347.684,346.511c-14.68,15.013-35.146,24.34-57.801,24.34c-20.409,0-39.038-7.577-53.266-20.054
		l-147.22,147.22C141.374,548.152,212.081,579,290,579c80.104,0,152.589-32.596,204.934-85.239L347.684,346.511z"/>
	<polygon style="fill:#FFFFFF;" points="460.509,329.629 458.776,328.629 481.471,289.354 458.776,250.081 460.509,249.081 
		483.781,289.354 	"/>
	<polygon style="fill:#FFFFFF;" points="119.257,329.63 95.985,289.356 119.257,249.083 120.989,250.083 98.296,289.356 
		120.989,328.63 	"/>
	<polygon style="fill:#FFFFFF;" points="329.156,120.463 289.883,97.769 250.608,120.463 249.608,118.73 289.883,95.458 
		330.156,118.73 	"/>
	<polygon style="fill:#FFFFFF;" points="289.885,483.254 249.611,459.981 250.611,458.249 289.885,480.943 329.158,458.249 
		330.158,459.981 	"/>
</g>
</svg>
