<?xml version="1.0" encoding="iso-8859-1"?>
<!-- Generator: Adobe Illustrator 15.0.2, SVG Export Plug-In . SVG Version: 6.00 Build 0)  -->
<!DOCTYPE svg PUBLIC "-//W3C//DTD SVG 1.1//EN" "http://www.w3.org/Graphics/SVG/1.1/DTD/svg11.dtd">
<svg version="1.1" id="Ebene_1" xmlns="http://www.w3.org/2000/svg" xmlns:xlink="http://www.w3.org/1999/xlink" x="0px" y="0px"
	 width="94px" height="70px" viewBox="0 0 94 70" style="enable-background:new 0 0 94 70;" xml:space="preserve">
<g>
	<polygon style="fill:#FFFFFF;" points="79.807,27.296 69.014,18.939 69.014,25.473 63.812,27.473 63.812,39.119 69.014,37.119 
		69.014,43.65 	"/>
	<g>
		<path style="fill:#FFFFFF;" d="M55.266,3.046H27.875c-2.93,0-4.565,1.636-4.565,4.565v54.78c0,2.928,1.636,4.564,4.565,4.564
			h27.391c2.928,0,4.564-1.639,4.564-4.564V7.611C59.83,4.682,58.191,3.046,55.266,3.046z M38.378,6.545h6.384
			c0.589,0,1.07,0.477,1.07,1.065c0,0.588-0.481,1.065-1.07,1.065h-6.384c-0.589,0-1.07-0.477-1.07-1.065
			C37.308,7.022,37.789,6.545,38.378,6.545z M41.569,65.581c-1.766,0-3.195-1.426-3.195-3.19s1.43-3.192,3.195-3.192
			c1.771,0,3.196,1.429,3.196,3.192C44.766,64.155,43.34,65.581,41.569,65.581z M55.266,57.827H27.875V12.173h27.391V57.827z"/>
	</g>
	<polygon style="fill:#FFFFFF;" points="3.333,27.296 14.127,43.65 14.127,37.119 19.327,39.119 19.327,27.473 14.127,25.473 
		14.127,18.939 	"/>
</g>
</svg>
