<?xml version="1.0" encoding="iso-8859-1"?>
<!-- Generator: Adobe Illustrator 15.0.2, SVG Export Plug-In . SVG Version: 6.00 Build 0)  -->
<!DOCTYPE svg PUBLIC "-//W3C//DTD SVG 1.1//EN" "http://www.w3.org/Graphics/SVG/1.1/DTD/svg11.dtd">
<svg version="1.1" id="Ebene_1" xmlns="http://www.w3.org/2000/svg" xmlns:xlink="http://www.w3.org/1999/xlink" x="0px" y="0px"
	 width="578px" height="578px" viewBox="0 0 578 578" style="enable-background:new 0 0 578 578;" xml:space="preserve">
<g>
	<g>
		<g style="enable-background:new    ;">
			<g>
				<path style="fill:#FFFFFF;" d="M249.853,394.085c-2.796-0.289-5.34-0.958-7.529-1.889c-2.205-0.934-4.041-2.151-5.471-3.557
					c-1.417-1.391-2.414-2.979-2.9-4.656c-0.484-1.68-0.459-3.462,0.158-5.261c0.604-1.811,1.757-3.464,3.292-4.919
					c1.534-1.457,3.478-2.717,5.668-3.7c2.189-0.996,4.656-1.719,7.255-2.138c2.585-0.407,5.312-0.498,8.055-0.224
					c2.74,0.289,5.232,0.919,7.398,1.822c2.164,0.904,4.014,2.072,5.431,3.438c1.429,1.378,2.438,2.938,2.964,4.617
					c0.526,1.679,0.552,3.464-0.013,5.288c-0.564,1.809-1.64,3.487-3.147,4.957c-1.51,1.481-3.425,2.769-5.629,3.792
					c-2.204,1.022-4.683,1.771-7.319,2.204C255.44,394.295,252.659,394.386,249.853,394.085 M176.284,353.642l61.788-156.726
					l148.367,12.41l-40.89,161.617L176.284,353.642 M297.918,191.145c-0.762-0.066-1.47-0.211-2.1-0.42
					c-0.629-0.224-1.168-0.499-1.588-0.841c-0.42-0.314-0.733-0.694-0.893-1.101c-0.17-0.395-0.184-0.841-0.039-1.273
					c0.157-0.433,0.459-0.84,0.893-1.193c0.42-0.354,0.957-0.656,1.574-0.893c0.616-0.235,1.312-0.42,2.047-0.524
					c0.722-0.104,1.496-0.131,2.256-0.065l34.095,2.795c0.801,0.052,1.536,0.209,2.164,0.42c0.646,0.209,1.181,0.497,1.612,0.825
					c0.436,0.328,0.75,0.695,0.92,1.103c0.17,0.408,0.211,0.84,0.078,1.272c-0.145,0.445-0.418,0.865-0.825,1.22
					s-0.933,0.668-1.534,0.905c-0.604,0.249-1.299,0.433-2.035,0.524c-0.732,0.105-1.521,0.131-2.334,0.08L297.918,191.145
					 M393.365,181.909l-144.799-11.65c-3.805-0.315-7.32-0.288-10.481,0.026c-3.161,0.342-5.996,0.972-8.461,1.915
					c-2.454,0.946-4.565,2.192-6.27,3.727c-1.707,1.548-3.018,3.385-3.91,5.522l-78.316,187.565
					c-1.234,2.951-1.707,5.654-1.444,8.081c0.25,2.439,1.26,4.592,2.979,6.441c1.743,1.863,4.197,3.41,7.372,4.604
					c3.188,1.206,7.07,2.071,11.649,2.559l174.171,18.575c4.762,0.513,9.117,0.524,13,0.053c3.884-0.472,7.293-1.431,10.205-2.832
					c2.9-1.405,5.289-3.255,7.125-5.537c1.836-2.27,3.121-4.959,3.83-8.042l44.812-195.424c0.513-2.217,0.406-4.225-0.275-6.009
					c-0.695-1.757-1.953-3.305-3.791-4.616c-1.81-1.312-4.197-2.388-7.098-3.228C400.753,182.814,397.314,182.237,393.365,181.909"
					/>
			</g>
		</g>
	</g>
	<g>
		<g style="enable-background:new    ;">
			<g>
				<path style="fill:#FFFFFF;" d="M416.298,204.944c0,0-39.881,175.878-44.918,196.605c-5.038,20.701-41.427,13.983-41.427,13.983
					s-164.059-18.313-178.541-20.49c-4.197-0.63-7.216-3.109-9.235-6.298c-0.957-1.509-2.008-1.509-1.968,0.145
					c0.157,6.206,0.774,12.857,0.931,14.286c0.249,2.44,1.261,4.592,2.979,6.455c1.745,1.861,4.197,3.41,7.372,4.591
					c3.188,1.207,7.085,2.073,11.648,2.571l174.173,18.575c4.775,0.499,9.131,0.524,13.015,0.053
					c3.883-0.472,7.293-1.441,10.205-2.834c2.887-1.415,5.274-3.253,7.108-5.535c1.838-2.283,3.123-4.959,3.832-8.054l4.748-20.624
					l38.201-165.172c0,0,0.406-3.556,1.036-10.063C416.088,216.633,416.298,204.944,416.298,204.944z"/>
			</g>
		</g>
	</g>
	<path style="fill:#FFFFFF;" d="M95.922,197.401l-7.832,92.367l22.944-31.354c0,0,14.562,33.02,47.016,38.62l20.15-43.094
		c-31.327-2.794-45.339-21.554-45.339-21.554l16.794-20.714L95.922,197.401z"/>
	<path style="fill:#FFFFFF;" d="M299.807,164.514L355.22,169c2.243-32.468-4.973-50.52-4.973-50.52l35.472,1.536l-55.412-42.818
		l-46.387,37.715l33.793,1.469C317.713,116.382,317.162,144.364,299.807,164.514z"/>
	<path style="fill:#FFFFFF;" d="M411.614,287.8l-10.493,47.856c37.779-1.262,62.967-15.952,78.08-31.484l2.662,38.49l27.417-100.199
		l-35.812,3.923l2.374,19.166C475.842,265.552,455.692,286.121,411.614,287.8z"/>
</g>
</svg>
