<?xml version="1.0" encoding="iso-8859-1"?>
<!-- Generator: Adobe Illustrator 15.0.2, SVG Export Plug-In . SVG Version: 6.00 Build 0)  -->
<!DOCTYPE svg PUBLIC "-//W3C//DTD SVG 1.1//EN" "http://www.w3.org/Graphics/SVG/1.1/DTD/svg11.dtd">
<svg version="1.1" xmlns="http://www.w3.org/2000/svg" xmlns:xlink="http://www.w3.org/1999/xlink" x="0px" y="0px" width="48px"
	 height="40px" viewBox="0 0 48 40" style="enable-background:new 0 0 48 40;" xml:space="preserve">
<g id="laptop">
	<g>
		<path style="fill:#383838;" d="M37,4H11C9.896,4,9,4.896,9,6v17c0,1.104,0.896,2,2,2h26c1.104,0,2-0.896,2-2V6
			C39,4.896,38.104,4,37,4z M37,23H11V6h26V23z"/>
	</g>
	<path style="fill:#383838;" d="M28,27c0,0,0,1-1,1s-5,0-6,0s-1-1-1-1H5c0,1.657,1.343,3,3,3h32c1.657,0,3-1.343,3-3H28z"/>
</g>
<g id="Ebene_1">
</g>
</svg>
