<?xml version="1.0" encoding="utf-8"?>
<!-- Generator: Adobe Illustrator 16.0.0, SVG Export Plug-In . SVG Version: 6.00 Build 0)  -->
<!DOCTYPE svg PUBLIC "-//W3C//DTD SVG 1.1//EN" "http://www.w3.org/Graphics/SVG/1.1/DTD/svg11.dtd">
<svg version="1.1" id="top_action_bar_light_1_" xmlns="http://www.w3.org/2000/svg" xmlns:xlink="http://www.w3.org/1999/xlink"
	 x="0px" y="0px" width="107px" height="109px" viewBox="0 0 107 109" enable-background="new 0 0 107 109" xml:space="preserve">
<g id="Shape_3">
	<g>
		<path fill="#FFFFFF" d="M45,42v22l19-11L45,42z M75,29H31c-1.833,0-3,1.036-3,3v42c0,1.964,1.167,3,3,3h44c1.832,0,3-1.036,3-3V32
			C78,30.036,76.832,29,75,29z M65,32h6v3h-6V32z M55,32h6v3h-6V32z M45,32h6v3h-6V32z M35,32h6v3h-6V32z M41,74h-6v-3h6V74z M51,74
			h-6v-3h6V74z M61,74h-6v-3h6V74z M71,74h-6v-3h6V74z M72,68H34V38h38V68z"/>
	</g>
</g>
</svg>
