<?xml version="1.0" encoding="utf-8"?>
<!-- Generator: Adobe Illustrator 16.0.0, SVG Export Plug-In . SVG Version: 6.00 Build 0)  -->
<!DOCTYPE svg PUBLIC "-//W3C//DTD SVG 1.1//EN" "http://www.w3.org/Graphics/SVG/1.1/DTD/svg11.dtd">
<svg version="1.1" id="top_action_bar_light_1_" xmlns="http://www.w3.org/2000/svg" xmlns:xlink="http://www.w3.org/1999/xlink"
	 x="0px" y="0px" width="107px" height="109px" viewBox="0 0 107 109" enable-background="new 0 0 107 109" xml:space="preserve">
<g id="Shape_5">
	<g>
		<path fill="#FFFFFF" d="M74,43H58l6.211-6.373c0.574-0.568,0.574-1.49,0-2.059c-0.573-0.568-1.502-0.568-2.076,0l-8.485,8.409
			h-1.722l-8.485-8.409c-0.573-0.568-1.503-0.568-2.077,0s-0.574,1.49,0,2.059L48,43H33c-1.612,0-3,1.399-3,3v26
			c0,1.601,1.388,3,3,3h41c1.618,0,3-1.399,3-3V46C77,44.399,75.618,43,74,43z M63,69H36V48h27V69z M71,61h-3v-3h3V61z M71,55h-3v-3
			h3V55z"/>
	</g>
</g>
</svg>
