<?xml version="1.0" encoding="utf-8"?>
<!-- Generator: Adobe Illustrator 16.0.0, SVG Export Plug-In . SVG Version: 6.00 Build 0)  -->
<!DOCTYPE svg PUBLIC "-//W3C//DTD SVG 1.1//EN" "http://www.w3.org/Graphics/SVG/1.1/DTD/svg11.dtd">
<svg version="1.1" id="top_action_bar_light_1_" xmlns="http://www.w3.org/2000/svg" xmlns:xlink="http://www.w3.org/1999/xlink"
	 x="0px" y="0px" width="107px" height="109px" viewBox="0 0 107 109" enable-background="new 0 0 107 109" xml:space="preserve">
<g id="Shape_4">
	<g>
		<path fill="#FFFFFF" d="M28,34v41h50V34H28z M75,72H31V37h44V72z M47,62l9-3l4-9l3,6l3,10l3,3h3V40H34v29h6L47,62z M45,43
			c2.588,0,5,2.389,5,5c0,2.615-2.412,5-5,5c-2.594,0-5-2.385-5-5C40,45.389,42.406,43,45,43z"/>
	</g>
</g>
</svg>
