<?xml version="1.0" encoding="utf-8"?>
<!-- Generator: Adobe Illustrator 16.0.0, SVG Export Plug-In . SVG Version: 6.00 Build 0)  -->
<!DOCTYPE svg PUBLIC "-//W3C//DTD SVG 1.1//EN" "http://www.w3.org/Graphics/SVG/1.1/DTD/svg11.dtd">
<svg version="1.1" id="top_action_bar_light_1_" xmlns="http://www.w3.org/2000/svg" xmlns:xlink="http://www.w3.org/1999/xlink"
	 x="0px" y="0px" width="107px" height="109px" viewBox="0 0 107 109" enable-background="new 0 0 107 109" xml:space="preserve">
<g id="Shape_2">
	<g>
		<path fill="#FFFFFF" d="M42,37v26c-1.123-0.277-2.023,0.017-3.286,0.017C32.799,63.017,28,66.863,28,71c0,4.14,4.085,7,10,7
			c3.579,0,7.054-1.116,9-3c1.277-1.231,2-3,2-4V48l22-5v15c-1-1-2.451-1.228-3.715-1.228c-5.914,0-10.714,3.354-10.714,7.49
			c0,4.141,4.8,7.494,10.714,7.494c3.579,0,6.725-1.238,8.671-3.122C77.232,67.403,78,65.637,78,64V28L42,37z"/>
	</g>
</g>
</svg>
