<?xml version="1.0" encoding="iso-8859-1"?>
<!-- Generator: Adobe Illustrator 15.0.2, SVG Export Plug-In . SVG Version: 6.00 Build 0)  -->
<!DOCTYPE svg PUBLIC "-//W3C//DTD SVG 1.1//EN" "http://www.w3.org/Graphics/SVG/1.1/DTD/svg11.dtd">
<svg version="1.1" xmlns="http://www.w3.org/2000/svg" xmlns:xlink="http://www.w3.org/1999/xlink" x="0px" y="0px" width="48px"
	 height="40px" viewBox="0 0 48 40" style="enable-background:new 0 0 48 40;" xml:space="preserve">
<g id="mode_selector">
	<rect x="7" y="27" style="fill:#FFFFFF;" width="6" height="7"/>
	<rect x="7" y="17" style="fill:#FFFFFF;" width="6" height="7"/>
	<rect x="7" y="7" style="fill:#FFFFFF;" width="6" height="7"/>
	<polygon style="fill:#FFFFFF;" points="26.57,3 19.727,37.452 22,37.465 29,3 	"/>
	<path style="fill:#FFFFFF;" d="M31.249,7l-2.437,12H41V7H31.249z M32,16.444V10l4.834,3.223L32,16.444z"/>
	<path style="fill:#FFFFFF;" d="M28.204,22l-2.437,12H41V22H28.204z M37,29h-2v2h-2v-2h-2v-2h2v-2h2v2h2V29z"/>
	<polygon style="fill:#FFFFFF;" points="22.718,7 16,7 16,14 21.327,14 	"/>
	<polygon style="fill:#FFFFFF;" points="20.731,17 16,17 16,24 19.341,24 	"/>
	<polygon style="fill:#FFFFFF;" points="18.745,27 16,27 16,34 17.355,34 	"/>
</g>
<g id="Ebene_1">
</g>
</svg>
