<?xml version="1.0" encoding="iso-8859-1"?>
<!-- Generator: Adobe Illustrator 15.0.2, SVG Export Plug-In . SVG Version: 6.00 Build 0)  -->
<!DOCTYPE svg PUBLIC "-//W3C//DTD SVG 1.1//EN" "http://www.w3.org/Graphics/SVG/1.1/DTD/svg11.dtd">
<svg version="1.1" xmlns="http://www.w3.org/2000/svg" xmlns:xlink="http://www.w3.org/1999/xlink" x="0px" y="0px" width="48px"
	 height="40px" viewBox="0 0 48 40" style="enable-background:new 0 0 48 40;" xml:space="preserve">
<g id="movie">
	<g>
		<path style="fill:#FFFFFF;" d="M5,6v28h38V6H5z M10,30H7v-3h3V30z M10,24H7v-3h3V24z M10,19H7v-3h3V19z M10,13H7v-3h3V13z M36,31
			H12V9h24V31z M41,30h-3v-3h3V30z M41,24h-3v-3h3V24z M41,19h-3v-3h3V19z M41,13h-3v-3h3V13z M20,28.283V11.484l11.2,8.399
			L20,28.283z"/>
	</g>
</g>
<g id="Ebene_1">
</g>
</svg>
