<?xml version="1.0" encoding="iso-8859-1"?>
<!-- Generator: Adobe Illustrator 15.0.2, SVG Export Plug-In . SVG Version: 6.00 Build 0)  -->
<!DOCTYPE svg PUBLIC "-//W3C//DTD SVG 1.1//EN" "http://www.w3.org/Graphics/SVG/1.1/DTD/svg11.dtd">
<svg version="1.1" xmlns="http://www.w3.org/2000/svg" xmlns:xlink="http://www.w3.org/1999/xlink" x="0px" y="0px" width="48px"
	 height="40px" viewBox="0 0 48 40" style="enable-background:new 0 0 48 40;" xml:space="preserve">
<g id="player_HD">
	<path style="fill:#FFFFFF;" d="M21.793,31h-4.65v-9.495H9.665V31H5V9h4.665v8.623h7.478V9h4.65V31z"/>
	<path style="fill:#FFFFFF;" d="M43.02,19.79c0,1.855-0.254,3.483-0.76,4.882c-0.508,1.4-1.24,2.569-2.197,3.507
		c-0.959,0.938-2.131,1.643-3.521,2.114C35.152,30.764,33.568,31,31.793,31H26V9h6.439c1.617,0,3.072,0.231,4.373,0.692
		c1.299,0.462,2.408,1.146,3.332,2.054c0.924,0.908,1.633,2.035,2.131,3.379C42.771,16.469,43.02,18.024,43.02,19.79z
		 M38.295,19.909c0-1.224-0.123-2.279-0.369-3.167s-0.602-1.623-1.068-2.204c-0.467-0.582-1.039-1.014-1.717-1.294
		c-0.676-0.281-1.451-0.421-2.322-0.421h-2.152v14.324h1.715c1.965,0,3.443-0.602,4.432-1.806S38.295,22.328,38.295,19.909z"/>
</g>
<g id="Ebene_1">
</g>
</svg>
