<?xml version="1.0" encoding="iso-8859-1"?>
<!-- Generator: Adobe Illustrator 15.0.2, SVG Export Plug-In . SVG Version: 6.00 Build 0)  -->
<!DOCTYPE svg PUBLIC "-//W3C//DTD SVG 1.1//EN" "http://www.w3.org/Graphics/SVG/1.1/DTD/svg11.dtd">
<svg version="1.1" xmlns="http://www.w3.org/2000/svg" xmlns:xlink="http://www.w3.org/1999/xlink" x="0px" y="0px" width="48px"
	 height="40px" viewBox="0 0 48 40" style="enable-background:new 0 0 48 40;" xml:space="preserve">
<g id="tablet">
	<path style="fill:#383838;" d="M38,7H10C8.896,7,8,7.896,8,9v22c0,1.104,0.896,2,2,2h28c1.105,0,2-0.896,2-2V9
		C40,7.896,39.105,7,38,7z M26,32h-4c-0.553,0-1-0.447-1-1s0.447-1,1-1h4c0.553,0,1,0.447,1,1S26.553,32,26,32z M38,29H10V9h28V29z"
		/>
</g>
<g id="Ebene_1">
</g>
</svg>
