<?xml version="1.0" encoding="iso-8859-1"?>
<!-- Generator: Adobe Illustrator 15.0.2, SVG Export Plug-In . SVG Version: 6.00 Build 0)  -->
<!DOCTYPE svg PUBLIC "-//W3C//DTD SVG 1.1//EN" "http://www.w3.org/Graphics/SVG/1.1/DTD/svg11.dtd">
<svg version="1.1" xmlns="http://www.w3.org/2000/svg" xmlns:xlink="http://www.w3.org/1999/xlink" x="0px" y="0px" width="48px"
	 height="40px" viewBox="0 0 48 40" style="enable-background:new 0 0 48 40;" xml:space="preserve">
<g id="to_device">
	<path style="fill:#FFFFFF;" d="M33,16v-0.25c-8.428,0-11.64,1.218-14.475,3.395C16.181,20.945,13.156,23,8,23v3
		c6.175,0,9.807-2.521,12.353-4.477C23.047,19.454,25.592,18.5,33,18.5V16z"/>
	<path style="fill:#FFFFFF;" d="M13,27.277V30H4V15h9v4.904c1.062,0,3-1.333,3-1.333V12H1v21h15v-6.604
		C15.078,26.757,14.073,27.046,13,27.277z"/>
	<polygon style="fill:#FFFFFF;" points="34.43,15.831 34.43,15.831 29.607,11.729 28.107,13.492 32.124,16.909 28.531,21.134 
		30.389,22.714 35.481,16.726 	"/>
	<path style="fill:#FFFFFF;" d="M39,32H27c2,0,2-3,2-3h8C37,29,37,32,39,32z"/>
	<path style="fill:#FFFFFF;" d="M20,7v9.196c0.812-0.656,3-1.384,3-1.384V10h21v14H23v-1.75c0,0-0.5,0.25-3,2.084V27h27V7H20z"/>
</g>
<g id="Ebene_1">
</g>
</svg>
