<?xml version="1.0" encoding="iso-8859-1"?>
<!-- Generator: Adobe Illustrator 15.0.2, SVG Export Plug-In . SVG Version: 6.00 Build 0)  -->
<!DOCTYPE svg PUBLIC "-//W3C//DTD SVG 1.1//EN" "http://www.w3.org/Graphics/SVG/1.1/DTD/svg11.dtd">
<svg version="1.1" xmlns="http://www.w3.org/2000/svg" xmlns:xlink="http://www.w3.org/1999/xlink" x="0px" y="0px" width="48px"
	 height="40px" viewBox="0 0 48 40" style="enable-background:new 0 0 48 40;" xml:space="preserve">
<g id="tv_channels">
	<path style="fill:#FFFFFF;" d="M13,12v21h30V12H13z M41,23c0,4.094-1,7-1,7s-5.938,1-12,1s-12-1-12-1s-1-2.87-1-7c0-5.031,1-8,1-8
		s6.062-1,12-1s12,1,12,1S41,18.906,41,23z"/>
	<g>
		<path style="fill:#FFFFFF;" d="M24.809,27.953h-2.323v-9.055h-2.76v-1.94h7.836v1.94h-2.753V27.953z"/>
		<path style="fill:#FFFFFF;" d="M34.908,16.958h2.354l-3.429,10.995h-2.542l-3.422-10.995h2.354l1.865,6.618
			c0.024,0.084,0.06,0.229,0.103,0.428c0.042,0.202,0.087,0.421,0.135,0.662c0.048,0.24,0.094,0.481,0.139,0.722
			s0.081,0.444,0.105,0.61c0.024-0.166,0.061-0.37,0.105-0.61s0.093-0.479,0.143-0.718s0.099-0.457,0.146-0.657
			c0.048-0.202,0.083-0.346,0.109-0.437L34.908,16.958z"/>
	</g>
	<polygon style="fill:#FFFFFF;" points="11,10 39,10 39,8 9,8 9,28 11,28 	"/>
	<polygon style="fill:#FFFFFF;" points="7,6 35,6 35,4 5,4 5,23 7,23 	"/>
</g>
<g id="Ebene_1">
</g>
</svg>
