<?xml version="1.0" encoding="iso-8859-1"?>
<!-- Generator: Adobe Illustrator 15.0.2, SVG Export Plug-In . SVG Version: 6.00 Build 0)  -->
<!DOCTYPE svg PUBLIC "-//W3C//DTD SVG 1.1//EN" "http://www.w3.org/Graphics/SVG/1.1/DTD/svg11.dtd">
<svg version="1.1" xmlns="http://www.w3.org/2000/svg" xmlns:xlink="http://www.w3.org/1999/xlink" x="0px" y="0px" width="48px"
	 height="40px" viewBox="0 0 48 40" style="enable-background:new 0 0 48 40;" xml:space="preserve">
<g id="webinos_apps">
	<path style="fill:#FFFFFF;" d="M28.73,11.51c-8.221,0.475-14.775,6.579-16.146,14.351c2.965-6.44,9.224-10.175,15.029-8.554
		c6.606,1.84,10.126,9.912,7.863,18.027c-0.012,0.039-0.025,0.074-0.037,0.115c-1.765,1.309-3.711,2.274-5.745,2.897
		c0.473-0.773,0.888-1.608,1.224-2.501c2.429-6.438,0.006-13.313-5.41-15.356c-4.637-1.751-9.962,0.613-12.924,5.371
		c3.455-3.484,7.945-4.367,10.664-1.849c3.094,2.861,2.729,9.04-0.819,13.798c-0.316,0.424-0.648,0.82-0.992,1.191
		c-1.468-0.205-2.92-0.582-4.324-1.133c0.96-0.555,1.896-1.278,2.747-2.167c3.41-3.549,4.201-8.324,1.765-10.663
		c-2.085-2.005-5.858-1.573-9.041,0.822c3.063-1.499,5.894-1.173,6.646,0.938c0.857,2.395-1.3,6.188-4.817,8.466
		c-0.355,0.229-0.71,0.434-1.063,0.613c-0.676-0.461-1.333-0.972-1.959-1.53C3.518,27.33,2.824,15.26,9.839,7.389
		c7.017-7.872,19.086-8.564,26.957-1.549c3.573,3.184,5.668,7.41,6.232,11.814C39.613,13.62,34.412,11.184,28.73,11.51z"/>
</g>
<g id="Ebene_1">
</g>
</svg>
